Coordinates
version=1
nRows=14
nColumns=36
inDegrees=yes

Units are S.I. units (second, meters, Newtons, ...)
If the header above contains a line with 'inDegrees', this indicates whether rotational values are in degrees (yes) or radians (no).

endheader
time	pelvis_tilt	pelvis_list	pelvis_rotation	pelvis_tx	pelvis_ty	pelvis_tz	hip_flexion_r	hip_adduction_r	hip_rotation_r	knee_angle_r	knee_angle_r_beta	ankle_angle_r	subtalar_angle_r	mtp_angle_r	hip_flexion_l	hip_adduction_l	hip_rotation_l	knee_angle_l	knee_angle_l_beta	ankle_angle_l	subtalar_angle_l	mtp_angle_l	lumbar_extension	lumbar_bending	lumbar_rotation	arm_flex_r	arm_add_r	arm_rot_r	elbow_flex_r	pro_sup_r	arm_flex_l	arm_add_l	arm_rot_l	elbow_flex_l	pro_sup_l
      6.01666670	    -30.41911246	      1.53622074	      7.10319074	      0.52780716	      0.75501624	     -0.11677808	     78.53424221	     -4.56753893	      4.82843854	     87.61384631	      1.52915009	     39.07149877	    -16.13829340	     -7.49999987	     81.15173555	     -1.94116894	     -3.14413609	     83.40993674	      1.45577802	     25.82163724	    -14.07176354	     -7.49999987	    -27.39461585	     -4.81854504	     -2.50763693	     70.20147245	    -39.62946525	     -7.38106414	    132.94406443	     99.57168168	     83.06351921	    -13.31639237	     14.07987276	    137.87754527	     98.73001843
      6.03333330	    -28.96404945	      1.85111237	      6.70926387	      0.54016520	      0.76950198	     -0.11348523	     74.71906300	     -4.06677549	      4.98382267	     85.22108987	      1.48738861	     38.70505592	    -17.10570412	     -7.49999987	     77.37892555	     -1.55454158	     -3.01356981	     81.46319705	      1.42180101	     24.69438306	    -15.88994319	     -7.49999987	    -25.89325782	     -4.87092139	     -1.99195017	     73.60460975	    -44.11649920	     -7.11527688	    132.12114445	     99.58341382	     86.95244355	    -16.41805954	     12.67293278	    137.55127373	     99.03002248
      6.05000000	    -27.90175322	      1.92046795	      6.78919531	      0.55073687	      0.78476698	     -0.10906231	     71.15849895	     -3.53158773	      4.87717725	     82.65980356	      1.44268573	     37.91291119	    -18.23157437	     -7.49999987	     74.25745662	     -1.19026190	     -2.61938926	     79.50719341	      1.38766230	     23.46569924	    -17.42781411	     -7.49999987	    -23.95761386	     -5.14217067	     -1.50376587	     79.33451753	    -49.58353088	     -5.21662832	    130.17726874	     97.47516519	     92.60115464	    -19.95483193	     12.59701588	    135.38837774	     97.56849370
      6.06666670	    -26.74967672	      1.70432342	      6.50887742	      0.56473588	      0.79521650	     -0.10707773	     67.70633809	     -2.64217992	      4.65030419	     80.15215110	      1.39891894	     37.41854340	    -19.14709308	     -7.49999987	     71.21589354	     -1.37490188	     -2.03882372	     77.67995734	      1.35577102	     22.63877904	    -18.60790710	     -7.49999987	    -21.77189053	     -5.16349112	     -1.63265221	     86.24772725	    -53.43316224	     -0.82639520	    128.16989029	     97.96878744	     98.71994444	    -24.35192006	     13.18145246	    133.40602772	     99.53947756
      6.08333330	    -26.28453932	      1.73235342	      6.21152357	      0.57935303	      0.82584517	     -0.11111189	     64.20101592	     -2.17241338	      4.58774173	     76.39759077	      1.33338950	     35.40860053	    -19.81402017	     -7.49999987	     67.61120071	     -1.25023953	     -2.00531612	     74.04355231	      1.29230378	     21.48629100	    -18.74164251	     -7.49999987	    -18.90356563	     -5.30946008	     -1.36225873	     87.54098427	    -56.54036193	     -1.38988796	    129.32712209	     95.59022626	    100.87398702	    -28.14314709	     13.71609293	    133.46830464	     97.09197863
      6.10000000	    -25.00123999	      1.50975848	      6.07758963	      0.59459344	      0.86140830	     -0.11440620	     59.00989090	     -1.84860183	      4.46365501	     70.67000564	      1.23342428	     31.48092634	    -21.81333403	     -7.49999987	     62.38589035	     -0.88470639	     -1.58511486	     68.72594063	      1.19949395	     18.32321405	    -20.88639020	     -7.49999987	    -17.68971691	     -5.02682096	     -0.74687390	     90.12214245	    -59.89482386	     -1.73419422	    129.40435281	     93.49572766	    104.37062514	    -29.96173200	     15.92077204	    132.92058806	     95.29275131
      6.11666670	    -24.27752956	      1.44015407	      5.94332300	      0.60919996	      0.87917329	     -0.11849850	     54.55628377	     -2.01880141	      4.28707924	     65.24198631	      1.13868747	     28.58608575	    -21.66745228	     -7.49999987	     58.16525258	     -0.40486232	     -1.28200299	     63.92148387	      1.11564036	     15.51499721	    -21.99062741	     -7.49999987	    -15.24259166	     -4.95190059	      1.39657553	     96.76847926	    -65.04863780	      2.25864447	    127.31268595	     93.50623409	    107.64860333	    -29.51851190	     18.13366717	    131.01661610	     96.86439029
      6.13333330	    -24.00673693	      1.32283322	      5.57035765	      0.62416867	      0.90174409	     -0.11420676	     50.82828137	     -1.92141779	      4.22335486	     59.79233672	      1.04357314	     25.30580113	    -21.89026526	     -7.49999987	     54.50250782	     -0.41254072	     -1.16299473	     59.17447889	      1.03278949	     12.35193152	    -22.73051868	     -7.49999987	    -12.51449103	     -4.60064493	      2.50485993	    105.78520790	    -67.38437380	     11.01987014	    125.17618864	     92.37757103	    112.08752548	    -34.28527693	     19.31946129	    131.27197229	     96.92783344
      6.15000000	    -23.39751165	      1.11782038	      5.49004333	      0.64756589	      0.92459146	     -0.11522334	     46.05964758	     -2.00541912	      3.77769599	     53.77103813	      0.93848166	     21.69416626	    -21.07785140	     -7.49999987	     50.07107897	     -0.64988283	     -1.13137605	     53.84036348	      0.93969161	      9.59438344	    -21.71006553	     -7.49999987	     -9.25226878	     -3.98938214	      2.31622699	    114.39260820	    -67.91188916	     21.21821784	    123.36591765	     91.55817403	    115.56395606	    -40.06683305	     20.26027588	    131.99499291	     94.62608152
      6.16666670	    -22.69995075	      1.29885457	      5.64164186	      0.66564013	      0.96179000	     -0.12106640	     40.54340698	     -2.93611375	      2.82978901	     46.05880248	      0.80387775	     17.27038746	    -19.81066887	     -7.49999987	     44.67752107	     -0.38873201	     -1.44884404	     46.92419028	      0.81898162	      6.13128457	    -19.46243405	     -7.49999987	     -5.88766875	     -3.54507748	      2.59400655	    118.92240897	    -68.53824488	     28.57449976	    123.14067883	     90.08964889	    114.68657376	    -44.01325473	     21.43480635	    131.72820104	     93.41275311
      6.18333330	    -21.37467405	      1.72200361	      5.80002076	      0.67860803	      1.00066006	     -0.12457812	     33.40376000	     -4.18882518	      1.07259085	     36.08359917	      0.62977761	     10.88286643	    -16.84269132	     -7.49999987	     37.91302903	      0.16595588	     -1.37552962	     37.63818218	      0.65691020	      0.17701219	    -16.43339348	     -7.49999987	     -3.19891836	     -3.40254614	      2.88263444	    117.01681893	    -68.65774212	     31.04355606	    123.37083556	     89.25496496	    111.71620927	    -45.69587755	     22.77394981	    130.54552268	     92.47679827
      6.20000000	    -19.76045056	      2.40077129	      6.21122621	      0.70059130	      1.06167440	     -0.11500071	     24.49796767	     -5.29047797	     -2.30223227	     23.54776862	      0.41098609	      2.05532742	    -11.64810882	     -7.49999987	     30.29887795	      0.49247495	     -1.83042616	     26.50684248	      0.46263168	     -9.31179820	    -11.31040550	     -7.49999987	     -0.96964332	     -4.00725776	      2.72090299	    100.33425908	    -70.28092168	     22.45090580	    127.74008492	     87.59652306	    100.38450486	    -47.67545140	     20.22143446	    132.25373344	     93.01185223
      6.21666670	    -18.67148224	      2.98714361	      6.28567452	      0.71568287	      1.09146760	     -0.12082202	     18.09038593	     -6.19010182	     -5.86904741	     13.09296964	      0.22851543	     -7.11430828	     -5.45277286	     -7.49999987	     23.17406810	      0.78503239	     -2.64036083	     14.43456168	      0.25193063	    -20.31831306	     -5.55414044	     -7.49999987	      1.43896562	     -4.12929888	      3.25781941	     83.12381216	    -71.46366793	     13.86813967	    129.87106543	     88.77937605	     90.15164828	    -48.76353373	     17.87222567	    133.30035109	     91.44340440
      6.23333330	    -17.67864068	      3.31483439	      5.96894628	      0.73688618	      1.12222265	     -0.12595120	     12.78615895	     -6.27802376	    -10.84023587	      4.78193527	      0.08346052	    -17.06921800	      0.19117323	     -7.49999987	     17.68792801	      0.60000313	     -4.62759781	      5.89078288	      0.10281356	    -29.20606211	     -0.36020338	     -7.49999987	      4.24145194	     -3.55384635	      2.00850481	     69.09561353	    -68.43474373	      9.58208722	    129.46219491	     88.90073253	     76.35991614	    -51.23084003	     11.40457542	    135.54398063	     91.05314440
